<?xml version="1.0" standalone="yes"?>
<svg xmlns="http://www.w3.org/2000/svg" width="640" height="480">
<path style="fill:#ffffff; stroke:none;" d="M0 0L0 480L640 480L640 0L0 0z"/>
<path style="fill:#010101; stroke:none;" d="M91 54L91 57L69 57L69 60L58 60L58 63L48 63L48 69L39 69L39 76L31 76L31 171L125 171L125 165L135 165L135 159L156 155L156 159L168 159L168 161L162 161L162 168L153 168L153 179C145.611 179 135.32 176.249 135 186L122 186L122 189L107 192L107 195L94 197L94 203L91 203L91 299L87 299L87 300L110 308L110 309L55 309L55 308L79 300L79 299L36 299L36 388C36 394.714 33.6259 414.553 41 417L41 423L134 423L136 336L147 336L147 360L183 360L183 386L220 386L220 398L238 398L238 411L246 411L246 419L255 419L255 423L349 423L350 329L341 329L341 323L333 323L333 315L315 315L315 307L381 307L381 325L386 325L390 356L401 356L401 381L482 381L482 356L506 355L506 347L509 347L509 338L514 338L514 333L518 333L518 325L535 325L535 305L539 305L539 297L545 297L545 293L549 293L549 290L564 290L564 267L572 267L572 258L580 258L580 249L590 249L590 242L596 242L596 237L602 237L602 227L610 227L610 132L517 132L517 142L507 142L507 146L501 146L501 153L495 153L495 162L485 162L485 172L477 172L477 178L465 178L465 164L370 164L370 174L353 174L353 184L342 184L342 187L334 187L334 196L324 196L324 200L316 200L316 204L309 204L309 212L298 212L298 302L297 302L297 277L260 277L260 252L256 252L256 250L266 250L266 242L274 242C275.074 237.547 276.234 234.777 281 234C281.001 225.278 284.576 217.776 284.961 209C286.453 174.911 286.27 139.534 282 106L279 106L279 96L276 96L274 89L268 89L268 77L262 77L262 73L251 73L251 63L240 63L240 59L231 59L231 55L91 54z"/>
</svg>
