<!DOCTYPE svg PUBLIC "-//W3C//DTD SVG 20010904//EN" "http://www.w3.org/TR/2001/REC-SVG-20010904/DTD/svg10.dtd">
<svg version="1.0" xmlns="http://www.w3.org/2000/svg" width="258px" height="37px" viewBox="0 0 2580 370" preserveAspectRatio="xMidYMid meet">
<g id="layer101" fill="#b0b0b0" stroke="none">
 <path d="M384 320 c-59 -24 -74 -118 -26 -170 15 -16 42 -33 60 -36 31 -6 32 -6 32 30 0 24 -5 36 -14 36 -39 0 -44 63 -5 75 14 5 19 15 19 41 0 29 -3 34 -22 33 -13 0 -33 -4 -44 -9z"/>
 <path d="M727 314 c-16 -9 -35 -30 -42 -47 l-14 -32 -1 43 c0 41 -1 42 -35 42 l-34 0 -3 -67 c-3 -65 -4 -68 -28 -68 -24 0 -25 3 -28 68 l-3 67 -34 0 -35 0 0 -145 0 -145 35 0 c35 0 35 0 35 46 0 41 2 45 20 39 38 -12 88 13 102 51 l12 34 12 -29 c26 -63 113 -79 166 -32 30 27 33 34 36 105 l4 76 -36 0 -36 0 0 -58 c0 -32 -5 -63 -12 -70 -32 -32 -80 8 -57 49 8 15 18 20 35 16 22 -4 24 -1 24 34 0 36 -2 39 -27 39 -16 -1 -41 -8 -56 -16z"/>
 <path d="M1061 316 c-55 -30 -68 -114 -26 -164 45 -53 115 -54 115 -2 0 24 -5 29 -26 32 -52 6 -58 67 -9 77 34 6 45 -27 45 -131 l0 -98 30 0 30 0 0 116 c0 63 -5 124 -10 135 -23 43 -101 61 -149 35z"/>
 <path d="M1385 305 c-24 -23 -25 -30 -25 -150 l0 -125 40 0 40 0 0 116 c0 105 2 115 18 112 15 -3 17 -18 20 -116 l3 -112 34 0 34 0 3 112 c3 105 4 113 23 113 19 0 20 -8 23 -113 l3 -112 34 0 35 0 0 129 c0 128 0 130 -26 150 -32 25 -71 27 -102 6 -19 -14 -24 -14 -51 0 -43 22 -78 19 -106 -10z"/>
 <path d="M2028 315 c-33 -19 -48 -44 -48 -84 0 -65 32 -104 98 -117 31 -6 32 -6 32 30 0 29 -4 36 -20 36 -23 0 -43 32 -34 54 3 9 17 19 31 22 20 5 24 12 21 38 -2 25 -8 31 -28 33 -14 2 -37 -4 -52 -12z"/>
 <path d="M2168 315 c-36 -20 -48 -44 -48 -95 0 -52 13 -76 50 -95 45 -23 85 -19 122 14 29 26 33 35 33 80 0 41 -5 55 -26 77 -32 32 -93 41 -131 19z m86 -77 c8 -13 8 -23 0 -35 -16 -26 -51 -28 -64 -4 -25 47 36 83 64 39z"/>
 <path d="M20 175 l0 -145 83 0 c74 0 86 3 105 23 25 26 30 95 10 115 -9 9 -9 15 0 24 7 7 12 38 12 70 l0 58 -35 0 c-33 0 -35 -2 -35 -36 0 -45 -15 -74 -40 -74 -18 0 -20 7 -20 55 l0 55 -40 0 -40 0 0 -145z m130 -40 c16 -19 -3 -45 -31 -45 -14 0 -19 7 -19 30 0 23 5 30 19 30 10 0 24 -7 31 -15z"/>
 <path d="M250 220 l0 -100 35 0 35 0 0 100 0 100 -35 0 -35 0 0 -100z"/>
 <path d="M910 244 c0 -41 4 -84 10 -94 8 -16 58 -40 81 -40 16 0 10 68 -6 74 -11 4 -15 22 -15 71 l0 65 -35 0 -35 0 0 -76z"/>
 <path d="M1690 220 l0 -100 30 0 30 0 0 100 0 100 -30 0 -30 0 0 -100z"/>
 <path d="M1770 255 c0 -39 6 -78 15 -95 31 -61 139 -61 170 0 9 17 15 56 15 95 l0 65 -35 0 -34 0 -3 -67 c-3 -65 -4 -68 -28 -68 -24 0 -25 3 -28 68 l-3 67 -34 0 -35 0 0 -65z"/>
 <path d="M2374 312 c-25 -16 -34 -56 -34 -151 l0 -101 35 0 c32 0 35 2 35 30 0 20 5 30 15 30 10 0 15 10 15 30 0 20 -5 30 -15 30 -11 0 -15 11 -15 35 0 22 6 38 15 41 9 4 15 19 15 35 0 25 -4 29 -27 29 -16 0 -33 -4 -39 -8z"/>
 <path d="M2470 300 c-18 -18 -20 -33 -20 -130 l0 -110 35 0 c32 0 35 2 35 30 0 20 5 30 15 30 10 0 15 10 15 30 0 20 -5 30 -15 30 -11 0 -15 11 -15 35 0 22 6 38 15 41 9 4 15 19 15 35 0 26 -4 29 -30 29 -17 0 -39 -9 -50 -20z"/>
 <path d="M256 94 c-20 -19 -20 -38 -2 -54 23 -19 61 -8 64 18 7 44 -32 67 -62 36z"/>
 <path d="M1695 97 c-13 -10 -16 -21 -11 -40 5 -22 12 -27 36 -27 24 0 31 5 36 27 5 19 2 30 -11 40 -11 7 -22 13 -25 13 -3 0 -14 -6 -25 -13z"/>
 </g>

</svg>